<?xml version="1.0" standalone="no"?>
<!DOCTYPE svg PUBLIC "-//W3C//DTD SVG 20010904//EN"
 "http://www.w3.org/TR/2001/REC-SVG-20010904/DTD/svg10.dtd">
<svg version="1.0" xmlns="http://www.w3.org/2000/svg"
 width="788.000000pt" height="788.000000pt" viewBox="0 0 788.000000 788.000000"
 preserveAspectRatio="xMidYMid meet">
<metadata>
Created by potrace 1.14, written by Peter Selinger 2001-2017
</metadata>
<g transform="translate(0.000000,788.000000) scale(0.100000,-0.100000)"
fill="#000000" stroke="none">
<path d="M7570 7805 c-851 -112 -1604 -359 -2293 -754 -529 -303 -954 -633
-1379 -1070 l-174 -179 -30 17 c-22 12 -54 16 -129 15 -272 -2 -690 -166
-1065 -417 -420 -281 -894 -796 -1006 -1095 -29 -77 -30 -102 -3 -136 31 -39
65 -33 197 34 165 85 246 104 422 97 106 -4 154 -10 225 -31 89 -26 324 -135
343 -159 7 -8 2 -30 -15 -69 -22 -49 -29 -58 -52 -58 -97 -1 -221 -130 -221
-230 0 -58 28 -105 108 -183 39 -37 67 -67 64 -67 -3 0 -44 7 -91 16 -126 24
-344 15 -466 -20 -421 -117 -781 -439 -957 -855 -31 -76 -108 -323 -102 -330
2 -2 47 32 101 75 182 147 315 235 375 249 26 7 28 5 28 -23 0 -59 -61 -223
-222 -597 -163 -376 -221 -474 -386 -646 -121 -126 -265 -249 -497 -425 -88
-67 -183 -146 -211 -175 -140 -149 -164 -376 -71 -669 l23 -75 72 141 c125
245 263 401 432 487 120 62 171 71 365 63 88 -3 347 -9 575 -12 557 -9 715 7
875 85 44 22 108 63 143 90 34 28 64 51 66 51 8 0 -79 -190 -184 -407 -54
-112 -96 -203 -92 -203 4 0 170 163 369 362 199 199 364 360 366 358 6 -7 57
-331 57 -358 0 -12 4 -22 8 -22 5 0 44 89 87 198 44 110 145 330 229 497 163
323 206 434 237 612 30 178 22 345 -27 513 -6 19 10 8 72 -49 43 -41 93 -80
111 -87 77 -33 174 -6 234 63 19 22 53 50 77 62 37 19 43 20 48 6 10 -25 30
-18 113 40 l78 54 20 -22 c111 -123 173 -304 174 -504 0 -226 -68 -451 -211
-692 -17 -30 -29 -55 -26 -58 6 -6 245 104 350 161 200 109 459 301 635 470
289 279 508 662 590 1033 46 204 55 291 56 534 l1 235 165 151 c435 399 783
812 1031 1223 328 543 577 1270 663 1935 20 156 36 519 28 663 l-6 112 -61 -1
c-34 -1 -140 -11 -236 -24z m-1550 -662 c88 -167 196 -317 334 -460 180 -187
407 -360 681 -517 55 -32 103 -61 107 -64 13 -12 -227 -382 -442 -682 -631
-881 -1427 -1697 -2277 -2332 -195 -146 -398 -288 -412 -288 -7 0 -101 82
-210 182 l-199 182 124 75 c170 104 401 265 563 392 261 205 600 516 644 592
70 120 76 294 13 416 -89 170 -319 230 -531 136 -86 -38 -410 -339 -586 -545
-154 -179 -340 -448 -459 -663 -36 -64 -68 -117 -72 -117 -5 0 -439 392 -541
489 -17 16 -16 21 17 102 121 300 257 575 419 844 99 164 252 385 314 456 118
132 201 235 230 287 68 119 414 467 713 718 193 161 524 398 730 521 220 132
727 392 767 393 6 0 39 -53 73 -117z"/>
<path d="M5547 6324 c-195 -47 -366 -185 -457 -370 -55 -110 -73 -202 -67
-334 8 -184 73 -328 206 -460 84 -84 170 -134 291 -171 114 -36 274 -34 393 5
139 45 251 120 334 225 50 63 115 193 131 261 32 135 23 295 -25 420 -75 201
-274 376 -483 425 -80 18 -245 18 -323 -1z"/>
</g>
</svg>
